<svg xmlns="http://www.w3.org/2000/svg" version="1.1" xmlns:xlink="http://www.w3.org/1999/xlink" width="512" height="512" x="0" y="0" viewBox="0 0 64 64" style="enable-background:new 0 0 512 512" xml:space="preserve" class=""><g><path d="M37.45 31.346c-.197-15.218-7.494-27.034-16.78-27.034-22.23.809-22.224 54.57.001 55.373 9.601.24 17.173-13.35 16.78-28.34zm-7.88 8.563a7.881 7.881 0 0 0 5.567-2.304c-1.434 11.628-7.278 20.102-14.466 20.102-19.625-.794-19.617-50.63 0-51.417 7.188 0 13.032 8.474 14.466 20.102a7.906 7.906 0 1 0-5.567 13.517z" fill="#000000" opacity="1" data-original="#000000" class=""></path><path d="M59.985 31.346c-.198-15.218-7.495-27.034-16.78-27.034A13.49 13.49 0 0 0 33.14 9.543a18.509 18.509 0 0 1 1.117 1.69 11.817 11.817 0 0 1 8.948-4.943c7.189 0 13.033 8.474 14.466 20.102-4.835-4.934-13.526-1.374-13.477 5.606a7.9 7.9 0 0 0 13.477 5.607c-1.433 11.628-7.277 20.102-14.466 20.102a11.84 11.84 0 0 1-8.978-4.984 29.459 29.459 0 0 1-1.117 1.691 13.476 13.476 0 0 0 10.095 5.27c9.602.238 17.176-13.348 16.78-28.338z" fill="#000000" opacity="1" data-original="#000000" class=""></path></g></svg>
