<svg width="523" height="529" viewBox="0 0 523 529" fill="none" xmlns="http://www.w3.org/2000/svg">
<g filter="url(#filter0_d_550_18)">
<path d="M312 258.5C312 399.056 243.5 513 159 513C74.5004 513 6 399.056 6 258.5C6 117.944 74.5004 4 159 4C243.5 4 312 117.944 312 258.5Z" fill="#D9D9D9"/>
<path d="M201.5 503C238.068 486.725 283.383 492.255 319.5 505.5L305.5 434H212.5L201.5 503Z" fill="#D9D9D9"/>
<path d="M509 258.5C509 399.056 440.5 513 356 513C271.5 513 203 399.056 203 258.5C203 117.944 271.5 4 356 4C440.5 4 509 117.944 509 258.5Z" fill="#D9D9D9"/>
<path d="M205.5 16C242.068 32.2746 281.883 25.2447 318 12L304 83.5001H211L205.5 16Z" fill="#D9D9D9"/>
</g>
<path d="M301.6 259.768C300.024 138.024 241.648 43.4961 167.36 43.4961C-10.48 49.9681 -10.432 480.056 167.368 486.48C244.176 488.4 304.752 379.68 301.608 259.76L301.6 259.768ZM238.56 328.272C255.261 328.269 271.278 321.64 283.096 309.84C271.624 402.864 224.872 470.656 167.368 470.656C10.368 464.304 10.432 65.6161 167.368 59.3201C224.872 59.3201 271.624 127.112 283.096 220.136C275.721 212.815 266.655 207.424 256.7 204.44C246.746 201.456 236.209 200.97 226.022 203.027C215.836 205.083 206.313 209.618 198.295 216.231C190.278 222.843 184.014 231.329 180.056 240.938C176.099 250.547 174.57 260.984 175.605 271.324C176.64 281.665 180.207 291.591 185.991 300.225C191.775 308.859 199.597 315.935 208.766 320.827C217.935 325.718 228.168 328.276 238.56 328.272Z" fill="#2F2F2F"/>
<path d="M481.88 259.768C480.296 138.024 421.92 43.4961 347.64 43.4961C331.985 44.207 316.673 48.3188 302.768 55.5456C288.863 62.7725 276.698 72.9409 267.12 85.3441C270.343 89.6843 273.326 94.1977 276.056 98.8641C284.266 87.3342 294.961 77.7952 307.351 70.951C319.74 64.1067 333.509 60.132 347.64 59.3201C405.152 59.3201 451.904 127.112 463.368 220.136C424.688 180.664 355.16 209.144 355.552 264.984C355.533 277.483 359.221 289.707 366.15 300.11C373.078 310.513 382.935 318.628 394.475 323.429C406.015 328.231 418.72 329.502 430.983 327.083C443.245 324.664 454.515 318.664 463.368 309.84C451.904 402.864 405.152 470.656 347.64 470.656C333.443 469.828 319.614 465.814 307.181 458.912C294.747 452.009 284.027 442.396 275.816 430.784C272.993 435.395 270.013 439.907 266.88 444.312C276.448 456.808 288.636 467.058 302.588 474.342C316.54 481.625 331.917 485.766 347.64 486.472C424.456 488.376 485.048 379.688 481.88 259.768Z" fill="#2F2F2F"/>
<path d="M301.6 259.768C300.024 138.024 241.648 43.4961 167.36 43.4961C-10.48 49.9681 -10.432 480.056 167.368 486.48C244.176 488.4 304.752 379.68 301.608 259.76L301.6 259.768ZM238.56 328.272C255.261 328.269 271.278 321.64 283.096 309.84C271.624 402.864 224.872 470.656 167.368 470.656C10.368 464.304 10.432 65.6161 167.368 59.3201C224.872 59.3201 271.624 127.112 283.096 220.136C275.721 212.815 266.655 207.424 256.7 204.44C246.746 201.456 236.209 200.97 226.022 203.027C215.836 205.083 206.313 209.618 198.295 216.231C190.278 222.843 184.014 231.329 180.056 240.938C176.099 250.547 174.57 260.984 175.605 271.324C176.64 281.665 180.207 291.591 185.991 300.225C191.775 308.859 199.597 315.935 208.766 320.827C217.935 325.718 228.168 328.276 238.56 328.272Z" fill="#2F2F2F"/>
<path d="M481.88 259.768C480.296 138.024 421.92 43.4961 347.64 43.4961C331.985 44.207 316.673 48.3188 302.768 55.5456C288.863 62.7725 276.698 72.9409 267.12 85.3441C270.343 89.6843 273.326 94.1977 276.056 98.8641C284.266 87.3342 294.961 77.7952 307.351 70.951C319.74 64.1067 333.509 60.132 347.64 59.3201C405.152 59.3201 451.904 127.112 463.368 220.136C424.688 180.664 355.16 209.144 355.552 264.984C355.533 277.483 359.221 289.707 366.15 300.11C373.078 310.513 382.935 318.628 394.475 323.429C406.015 328.231 418.72 329.502 430.983 327.083C443.245 324.664 454.515 318.664 463.368 309.84C451.904 402.864 405.152 470.656 347.64 470.656C333.443 469.828 319.614 465.814 307.181 458.912C294.747 452.009 284.027 442.396 275.816 430.784C272.993 435.395 270.013 439.907 266.88 444.312C276.448 456.808 288.636 467.058 302.588 474.342C316.54 481.625 331.917 485.766 347.64 486.472C424.456 488.376 485.048 379.688 481.88 259.768Z" fill="#2F2F2F"/>
<defs>
<filter id="filter0_d_550_18" x="0" y="0" width="523" height="529" filterUnits="userSpaceOnUse" color-interpolation-filters="sRGB">
<feFlood flood-opacity="0" result="BackgroundImageFix"/>
<feColorMatrix in="SourceAlpha" type="matrix" values="0 0 0 0 0 0 0 0 0 0 0 0 0 0 0 0 0 0 127 0" result="hardAlpha"/>
<feOffset dx="4" dy="6"/>
<feGaussianBlur stdDeviation="5"/>
<feComposite in2="hardAlpha" operator="out"/>
<feColorMatrix type="matrix" values="0 0 0 0 0 0 0 0 0 0 0 0 0 0 0 0 0 0 0.25 0"/>
<feBlend mode="normal" in2="BackgroundImageFix" result="effect1_dropShadow_550_18"/>
<feBlend mode="normal" in="SourceGraphic" in2="effect1_dropShadow_550_18" result="shape"/>
</filter>
</defs>
</svg>
